<svg width="165" height="36" fill="none" xmlns="http://www.w3.org/2000/svg"><g style="mix-blend-mode:hard-light"><path fill-rule="evenodd" clip-rule="evenodd" d="M6.748 3.953H17.54c7.504 0 13.588 6.083 13.588 13.587S25.044 31.128 17.54 31.128 3.953 25.044 3.953 17.54H0c0 9.688 7.853 17.54 17.54 17.54 3.084 0 5.981-.795 8.498-2.192h6.85v-6.85a17.46 17.46 0 0 0 2.193-8.498C35.08 7.853 27.227 0 17.54 0H0v2.79l10.499 10.503a8.222 8.222 0 1 0 2.795-2.795L6.748 3.953ZM17.54 21.81a4.27 4.27 0 1 0 0-8.539 4.27 4.27 0 0 0 0 8.539Z" fill="url(#a)"/><path d="M105.083 7.411h3.878l7.148 13.14V7.41h3.618v20.258h-3.878L108.7 14.53v13.14h-3.617V7.41Z" fill="url(#b)"/><path d="M127.822 7.411h-3.618v20.258h3.618V7.412Z" fill="url(#c)"/><path d="M132.336 27.64V7.412h13.371v3.618h-9.753v4.63h9.753v3.618h-9.753v4.775h9.753v3.617h-12.068v-.028h-1.303Z" fill="url(#d)"/><path d="M149.71 11.492v3.588c0 1.312.357 2.344 1.071 3.097.714.752 1.698 1.129 2.952 1.129h5.991c.251 0 .444.019.579.057.154.04.27.116.347.232.077.097.125.25.145.463.038.193.058.454.058.782v2.228c0 .29-.078.52-.232.694-.154.174-.405.261-.752.261h-9.117v3.646h9.117c.675 0 1.292-.106 1.852-.318a4.207 4.207 0 0 0 1.476-.897c.405-.386.723-.84.955-1.36.231-.54.347-1.129.347-1.766V20.84c0-.502-.029-1.033-.087-1.592a3.453 3.453 0 0 0-.55-1.62c-.752-1.294-2.131-1.94-4.138-1.94h-5.672a.63.63 0 0 1-.521-.26 1.12 1.12 0 0 1-.174-.637v-2.865c0-.213.058-.405.174-.58.135-.192.308-.289.521-.289h9.405V7.411h-9.724c-1.273 0-2.267.367-2.981 1.1-.694.714-1.042 1.707-1.042 2.98Z" fill="url(#e)"/><path fill-rule="evenodd" clip-rule="evenodd" d="M47.28 27.67V7.41h9.232c.386 0 .916.068 1.592.203.694.115 1.38.405 2.054.868.695.444 1.293 1.1 1.795 1.968.501.868.752 2.045.752 3.53v7.12c0 1.486-.25 2.662-.752 3.53-.502.869-1.1 1.535-1.795 1.998-.675.443-1.36.733-2.054.868-.676.116-1.206.174-1.592.174H47.28Zm9.232-3.618h-5.615V11.029h5.615c.116 0 .309.019.579.057.29.02.578.126.868.319.309.174.57.463.781.868.232.405.348.974.348 1.708V21.1c0 .733-.116 1.302-.348 1.707-.212.406-.472.705-.781.898a2.27 2.27 0 0 1-.868.318 9.28 9.28 0 0 1-.58.029Z" fill="url(#f)"/><path fill-rule="evenodd" clip-rule="evenodd" d="M70.61 27.668h-3.618V7.409h10.621c1.274 0 2.258.367 2.952 1.1.714.714 1.071 1.707 1.071 2.98v4.318c0 1.274-.357 2.267-1.07 2.981-.562.592-1.312.945-2.25 1.06l3.262 7.82h-3.77l-3.256-7.78h-3.928v.024h-.014v7.756Zm0-16.641v5.243h7.003c.213 0 .328-.029.348-.087.038-.038.058-.164.058-.376V11.49c0-.212-.02-.338-.058-.376-.02-.058-.135-.087-.348-.087H70.61Z" fill="url(#g)"/><path fill-rule="evenodd" clip-rule="evenodd" d="M85.905 23.589V11.492c0-1.274.347-2.267 1.041-2.981.714-.733 1.708-1.1 2.981-1.1h6.628c1.273 0 2.257.367 2.952 1.1.714.714 1.071 1.707 1.071 2.98V23.59c0 1.273-.357 2.277-1.071 3.01-.695.714-1.679 1.07-2.952 1.07h-6.628c-1.273 0-2.267-.356-2.98-1.07-.695-.733-1.042-1.737-1.042-3.01Zm3.646-.376V11.926c0-.213.068-.415.203-.608.154-.193.337-.29.55-.29h5.759c.212 0 .405.097.579.29.193.193.29.396.29.608v11.287a.713.713 0 0 1-.29.578.851.851 0 0 1-.58.232h-5.758a.751.751 0 0 1-.55-.232.847.847 0 0 1-.203-.578Z" fill="url(#h)"/></g><defs><linearGradient id="a" x1="13.579" y1="-16.641" x2="67.632" y2="2.569" gradientUnits="userSpaceOnUse"><stop stop-color="#BDFFC2"/><stop offset="1" stop-color="#EFFFF0"/></linearGradient><linearGradient id="b" x1="92.651" y1="-2.201" x2="131.565" y2="77.81" gradientUnits="userSpaceOnUse"><stop stop-color="#BDFFC2"/><stop offset="1" stop-color="#EFFFF0"/></linearGradient><linearGradient id="c" x1="92.651" y1="-2.201" x2="131.565" y2="77.81" gradientUnits="userSpaceOnUse"><stop stop-color="#BDFFC2"/><stop offset="1" stop-color="#EFFFF0"/></linearGradient><linearGradient id="d" x1="92.651" y1="-2.201" x2="131.565" y2="77.81" gradientUnits="userSpaceOnUse"><stop stop-color="#BDFFC2"/><stop offset="1" stop-color="#EFFFF0"/></linearGradient><linearGradient id="e" x1="92.651" y1="-2.201" x2="131.565" y2="77.81" gradientUnits="userSpaceOnUse"><stop stop-color="#BDFFC2"/><stop offset="1" stop-color="#EFFFF0"/></linearGradient><linearGradient id="f" x1="92.651" y1="-2.201" x2="131.565" y2="77.81" gradientUnits="userSpaceOnUse"><stop stop-color="#BDFFC2"/><stop offset="1" stop-color="#EFFFF0"/></linearGradient><linearGradient id="g" x1="92.651" y1="-2.201" x2="131.565" y2="77.81" gradientUnits="userSpaceOnUse"><stop stop-color="#BDFFC2"/><stop offset="1" stop-color="#EFFFF0"/></linearGradient><linearGradient id="h" x1="92.651" y1="-2.201" x2="131.565" y2="77.81" gradientUnits="userSpaceOnUse"><stop stop-color="#BDFFC2"/><stop offset="1" stop-color="#EFFFF0"/></linearGradient></defs></svg>